<?xml version="1.0" encoding="UTF-8"?>
<svg id="Layer_2" data-name="Layer 2" xmlns="http://www.w3.org/2000/svg" viewBox="0 0 987.17 424.5">
  <defs>
    <style>
      .cls-1 {
        fill: none;
      }

      .cls-2, .cls-3 {
        fill: #231f20;
      }

      .cls-4 {
        letter-spacing: .13em;
      }

      .cls-5 {
        letter-spacing: .13em;
      }

      .cls-3 {
        font-family: ConthraxSb-Regular, Conthrax;
        font-size: 40px;
      }

      .cls-6 {
        letter-spacing: .12em;
      }
    </style>
  </defs>
  <g id="Layer_1-2" data-name="Layer 1">
    <g>
      <path class="cls-1" d="M259.24,248.77c-2.14-2.33-4.93-4-8.39-5.04-3.46-1.03-7.73-1.55-12.81-1.55h-56.77c-1.5,0-2.25,.91-2.25,2.71v76.56c0,1.68,.75,2.52,2.25,2.52h56.77c5.08,0,9.35-.51,12.81-1.55,3.46-1.03,6.26-2.71,8.39-5.04,2.13-2.33,3.66-5.43,4.59-9.3,.92-3.88,1.38-8.66,1.38-14.34v-21.32c0-5.68-.46-10.47-1.38-14.34-.92-3.88-2.45-6.98-4.59-9.3Z"/>
      <path d="M139.16,215.24H3.98c-2.66,0-3.98,1.42-3.98,4.26v19c0,2.97,1.33,4.46,3.98,4.46H58.33v103.7c0,2.84,1.27,4.26,3.81,4.26h18.87c2.54,0,3.81-1.42,3.81-4.26v-103.7h54.35c2.65,0,3.98-1.48,3.98-4.46v-19c0-2.84-1.33-4.26-3.98-4.26Z"/>
      <path d="M279.23,228.32c-4.27-4.46-9.75-7.75-16.44-9.89-6.69-2.13-14.71-3.2-24.06-3.2h-81c-3.46,0-5.19,1.94-5.19,5.82v124.05c0,3.88,1.73,5.81,5.19,5.81h81c9.35,0,17.36-1.07,24.06-3.2,6.69-2.13,12.17-5.43,16.44-9.89,4.27-4.46,7.41-10.14,9.43-17.06,2.02-6.91,3.03-15.09,3.03-24.52v-26.36c0-9.43-1.01-17.61-3.03-24.52-2.02-6.91-5.17-12.6-9.43-17.06Zm-14.02,65.42c0,5.69-.46,10.47-1.38,14.34-.92,3.88-2.45,6.98-4.59,9.3-2.14,2.33-4.93,4.01-8.39,5.04-3.46,1.04-7.73,1.55-12.81,1.55h-56.77c-1.5,0-2.25-.84-2.25-2.52v-76.56c0-1.81,.75-2.71,2.25-2.71h56.77c5.08,0,9.35,.52,12.81,1.55,3.46,1.04,6.26,2.71,8.39,5.04,2.13,2.33,3.66,5.43,4.59,9.3,.92,3.88,1.38,8.66,1.38,14.34v21.32Z"/>
      <path d="M510.25,216.6c-.17-.9-.72-1.36-1.64-1.36h-23.37c-.58,0-1.12,.16-1.64,.48-.52,.32-.9,1-1.12,2.04l-27.35,104.28c-.23,.91-.69,1.36-1.38,1.36h-1.04c-.69,0-1.16-.45-1.38-1.36l-28.73-95.56c-1.27-4.13-2.91-7.04-4.93-8.72-2.02-1.68-4.93-2.52-8.74-2.52h-17.13c-3.12,0-5.71,.78-7.79,2.33-2.08,1.55-3.75,4.52-5.02,8.92l-28.04,95.56c-.23,.91-.69,1.36-1.38,1.36h-.87c-.81,0-1.27-.45-1.38-1.36l-28.04-104.28c-.46-1.68-1.27-2.52-2.42-2.52h-23.19c-.92,0-1.47,.42-1.64,1.26-.17,.84-.09,1.91,.26,3.2l31.85,116.49c.81,2.97,1.64,5.43,2.51,7.37,.87,1.94,1.87,3.46,3.03,4.56,1.15,1.1,2.45,1.84,3.89,2.23,1.44,.39,3.14,.58,5.11,.58h19.73c3.35,0,5.97-1.03,7.88-3.1,1.9-2.07,3.72-5.94,5.45-11.63l27.52-92.07c.11-.9,.58-1.36,1.38-1.36h.69c.81,0,1.27,.45,1.38,1.36l27.17,92.07c1.73,5.69,3.55,9.56,5.45,11.63,1.9,2.07,4.53,3.1,7.88,3.1h20.25c3.35,0,6-1,7.96-3,1.96-2,3.75-5.91,5.37-11.73l33.23-116.49c.35-1.16,.43-2.2,.26-3.1Z"/>
    </g>
    <path class="cls-2" d="M587.86,218.34c1.13,0,1.7,.44,1.7,1.31v5.85c0,.92-.57,1.37-1.7,1.37h-23.24v31.95c0,.88-.54,1.31-1.63,1.31h-8.07c-1.09,0-1.63-.44-1.63-1.31v-31.95h-23.24c-1.14,0-1.7-.46-1.7-1.37v-5.85c0-.88,.57-1.31,1.7-1.31h57.81Z"/>
    <path class="cls-2" d="M632.57,227.36c.89,0,1.33,.36,1.33,1.08v5.02c0,.72-.44,1.08-1.33,1.08h-19.69c-1.58,0-2.89,.11-3.92,.33-1.04,.22-1.86,.58-2.48,1.08-.62,.5-1.05,1.17-1.3,2.03-.25,.86-.37,1.9-.37,3.14v17.74c0,.88-.54,1.31-1.63,1.31h-7.25c-1.14,0-1.7-.44-1.7-1.31v-19.35c0-2.15,.3-3.99,.89-5.52,.59-1.53,1.57-2.79,2.92-3.76,1.36-.98,3.16-1.69,5.4-2.15,2.25-.46,5.04-.69,8.4-.69h20.73Z"/>
    <path class="cls-2" d="M648.78,215.24c1.08,0,1.63,.44,1.63,1.31v5.67c0,.92-.54,1.37-1.63,1.37h-7.25c-1.14,0-1.7-.46-1.7-1.37v-5.67c0-.88,.57-1.31,1.7-1.31h7.25Zm0,12.12c1.08,0,1.63,.46,1.63,1.37v30.1c0,.88-.54,1.31-1.63,1.31h-7.25c-1.09,0-1.63-.44-1.63-1.31v-30.1c0-.92,.54-1.37,1.63-1.37h7.25Z"/>
    <path class="cls-2" d="M697.92,227.36c3.31,0,6.09,.23,8.36,.69,2.27,.46,4.08,1.17,5.44,2.15,1.36,.98,2.33,2.23,2.92,3.76,.59,1.53,.89,3.37,.89,5.52v8.6c0,2.15-.3,3.99-.89,5.52-.59,1.53-1.57,2.79-2.92,3.76-1.36,.98-3.17,1.68-5.44,2.12-2.27,.44-5.06,.66-8.36,.66h-27.76v11.89c0,.88-.54,1.31-1.63,1.31h-7.25c-1.14,0-1.7-.44-1.7-1.31v-32.55c0-2.15,.3-3.99,.89-5.52,.59-1.53,1.57-2.79,2.92-3.76,1.36-.98,3.16-1.69,5.4-2.15,2.25-.46,5.04-.69,8.4-.69h20.73Zm-27.76,25.62h26.72c1.63,0,2.96-.1,4-.3,1.04-.2,1.86-.56,2.48-1.08,.62-.52,1.05-1.19,1.3-2.03,.25-.84,.37-1.89,.37-3.17v-5.32c0-1.23-.12-2.28-.37-3.14-.25-.86-.68-1.53-1.3-2.03-.62-.5-1.44-.86-2.48-1.08-1.04-.22-2.37-.33-4-.33h-18.65c-1.58,0-2.89,.11-3.92,.33-1.04,.22-1.86,.58-2.48,1.08-.62,.5-1.05,1.17-1.3,2.03-.25,.86-.37,1.9-.37,3.14v11.89Z"/>
    <path class="cls-2" d="M733.23,215.36c1.08,0,1.63,.44,1.63,1.31v42.17c0,.88-.54,1.31-1.63,1.31h-7.25c-1.09,0-1.63-.44-1.63-1.31v-42.17c0-.88,.54-1.31,1.63-1.31h7.25Z"/>
    <path class="cls-2" d="M781.93,227.36c2.52,0,4.6,.17,6.26,.51,1.65,.34,2.96,.9,3.92,1.67,.96,.78,1.64,1.79,2.04,3.05,.39,1.25,.59,2.78,.59,4.57v5.67c0,1.27-.35,2.16-1.04,2.66-.69,.5-1.75,.75-3.18,.75h-37.38v1.43c0,1.87,.56,3.23,1.67,4.06,1.11,.84,3.27,1.25,6.48,1.25h30.87c.89,0,1.33,.36,1.33,1.08v5.02c0,.72-.44,1.08-1.33,1.08h-31.9c-3.36,0-6.16-.22-8.4-.66-2.25-.44-4.05-1.14-5.4-2.12-1.36-.98-2.33-2.23-2.92-3.76-.59-1.53-.89-3.37-.89-5.52v-8.6c0-2.15,.3-3.99,.89-5.52,.59-1.53,1.57-2.79,2.92-3.76,1.36-.98,3.16-1.69,5.4-2.15,2.24-.46,5.04-.69,8.4-.69h21.69Zm-28.79,13.56h29.98c.84,0,1.26-.34,1.26-1.02v-2.51c0-1.23-.32-2.11-.96-2.63-.64-.52-1.83-.78-3.55-.78h-18.58c-3.21,0-5.37,.41-6.48,1.22-1.11,.82-1.67,2.18-1.67,4.09v1.61Z"/>
    <path class="cls-2" d="M864.54,218.34c4,0,7.43,.33,10.29,.99,2.86,.66,5.2,1.67,7.03,3.05,1.83,1.37,3.17,3.13,4.03,5.26,.86,2.13,1.3,4.65,1.3,7.56v8.12c0,2.91-.43,5.43-1.3,7.56-.86,2.13-2.21,3.88-4.03,5.26-1.83,1.37-4.17,2.39-7.03,3.05-2.86,.66-6.29,.99-10.29,.99h-34.64c-1.48,0-2.22-.6-2.22-1.79v-38.23c0-1.19,.74-1.79,2.22-1.79h34.64Zm-25.54,32.73c0,.52,.32,.78,.96,.78h24.28c2.17,0,4-.16,5.48-.48,1.48-.32,2.68-.84,3.59-1.55s1.57-1.67,1.96-2.87c.39-1.19,.59-2.67,.59-4.42v-6.57c0-1.75-.2-3.23-.59-4.42-.4-1.19-1.05-2.15-1.96-2.87-.91-.72-2.11-1.23-3.59-1.55-1.48-.32-3.31-.48-5.48-.48h-24.28c-.64,0-.96,.28-.96,.84v23.59Z"/>
    <path class="cls-2" d="M903.62,215.36c1.08,0,1.63,.44,1.63,1.31v5.08c0,.52-.03,.96-.07,1.31-.05,.36-.2,.86-.44,1.49l-2.74,8.12c-.2,.52-.43,.87-.7,1.04-.27,.18-.7,.27-1.3,.27h-2.96c-1.18,0-1.65-.44-1.41-1.31l2-8.9h-1.26c-1.14,0-1.7-.44-1.7-1.31v-5.79c0-.88,.57-1.31,1.7-1.31h7.25Z"/>
    <path class="cls-2" d="M940.58,227.36c.55,0,.83,.22,.83,.67v2.97c0,.44-.28,.67-.83,.67h-20.72c-.95,0-1.61,.14-1.98,.43-.37,.28-.55,.7-.55,1.24v.56c0,.49,.18,.88,.55,1.17,.37,.28,1.03,.43,1.98,.43h15.48c2.57,0,4.41,.43,5.51,1.3,1.1,.87,1.65,2.09,1.65,3.67v2.08c0,.82-.12,1.55-.37,2.19-.25,.64-.65,1.19-1.22,1.63-.57,.44-1.31,.78-2.23,1.02-.92,.24-2.05,.35-3.4,.35h-23.52c-.55,0-.83-.22-.83-.67v-2.97c0-.44,.28-.67,.83-.67h21.78c.95,0,1.62-.14,2-.41,.38-.27,.57-.73,.57-1.37v-1c0-.49-.19-.88-.57-1.15-.38-.27-1.05-.41-2-.41h-15.44c-2.57,0-4.41-.43-5.51-1.28-1.1-.85-1.65-2.09-1.65-3.73v-1.63c0-.77,.12-1.46,.37-2.09,.24-.63,.65-1.17,1.22-1.61s1.31-.78,2.23-1.02c.92-.23,2.05-.35,3.4-.35h22.42Z"/>
    <path class="cls-2" d="M538.78,290.02c.49,0,.84,.26,1.04,.78l11.99,32.13c.05,.28,.25,.42,.59,.42h.37c.3,0,.49-.14,.59-.42l11.99-29.45c.54-1.35,1.26-2.27,2.15-2.75,.89-.48,2-.72,3.33-.72h7.33c1.63,0,2.87,.26,3.74,.78,.86,.52,1.57,1.41,2.11,2.69l12.29,29.45c.1,.28,.3,.42,.59,.42h.44c.3,0,.49-.14,.59-.42l11.69-32.13c.1-.32,.26-.53,.48-.63,.22-.1,.46-.15,.7-.15h9.99c.39,0,.63,.14,.7,.42,.07,.28,.04,.6-.11,.96l-14.21,35.9c-.69,1.79-1.46,3-2.29,3.61-.84,.62-1.97,.93-3.4,.93h-8.66c-1.43,0-2.55-.32-3.37-.96-.81-.64-1.59-1.83-2.33-3.58l-11.62-28.37c-.05-.28-.25-.42-.59-.42h-.3c-.35,0-.54,.14-.59,.42l-11.77,28.37c-.74,1.75-1.52,2.95-2.33,3.58-.81,.64-1.94,.96-3.37,.96h-8.44c-.84,0-1.57-.06-2.18-.18-.62-.12-1.17-.35-1.67-.69-.49-.34-.93-.81-1.3-1.4-.37-.6-.73-1.35-1.07-2.27l-13.62-35.9c-.15-.4-.19-.73-.11-.99,.07-.26,.31-.39,.7-.39h9.92Z"/>
    <path class="cls-2" d="M661.29,299.04c.89,0,1.33,.36,1.33,1.08v5.02c0,.72-.44,1.08-1.33,1.08h-19.69c-1.58,0-2.89,.11-3.92,.33-1.04,.22-1.86,.58-2.48,1.08-.62,.5-1.05,1.17-1.3,2.03-.25,.86-.37,1.9-.37,3.14v17.74c0,.88-.54,1.31-1.63,1.31h-7.25c-1.14,0-1.7-.44-1.7-1.31v-19.35c0-2.15,.3-3.99,.89-5.52,.59-1.53,1.57-2.79,2.92-3.76,1.36-.98,3.16-1.69,5.4-2.15,2.25-.46,5.04-.69,8.4-.69h20.73Z"/>
    <path class="cls-2" d="M701.4,299.04c3.31,0,6.09,.23,8.36,.69,2.27,.46,4.08,1.17,5.44,2.15,1.36,.98,2.33,2.23,2.92,3.76,.59,1.53,.89,3.37,.89,5.52v15.89c0,.96-.09,1.74-.26,2.36-.17,.62-.47,1.11-.89,1.46s-.97,.61-1.67,.75c-.69,.14-1.58,.21-2.66,.21h-35.23c-2.17,0-3.99-.17-5.44-.51-1.46-.34-2.63-.85-3.52-1.52-.89-.68-1.52-1.55-1.89-2.63-.37-1.08-.56-2.35-.56-3.82v-2.87c0-1.23,.19-2.34,.56-3.31,.37-.98,1-1.8,1.89-2.48,.89-.68,2.06-1.18,3.52-1.52,1.45-.34,3.27-.51,5.44-.51h30.13v-1.13c0-.96-.12-1.77-.37-2.45-.25-.68-.67-1.22-1.26-1.64s-1.41-.73-2.44-.93c-1.04-.2-2.37-.3-4-.3h-30.94c-.89,0-1.33-.36-1.33-1.08v-5.02c0-.72,.44-1.08,1.33-1.08h31.98Zm4.89,26.22c.79,0,1.34-.15,1.67-.45,.32-.3,.48-.83,.48-1.58v-5.26h-27.09c-1.53,0-2.6,.25-3.22,.75-.62,.5-.93,1.22-.93,2.18v1.25c0,1.08,.31,1.86,.93,2.36,.62,.5,1.69,.75,3.22,.75h24.94Z"/>
    <path class="cls-2" d="M765.06,299.04c3.31,0,6.09,.23,8.36,.69,2.27,.46,4.08,1.17,5.44,2.15,1.36,.98,2.33,2.23,2.92,3.76,.59,1.53,.89,3.37,.89,5.52v8.6c0,2.15-.3,3.99-.89,5.52-.59,1.53-1.57,2.79-2.92,3.76-1.36,.98-3.17,1.68-5.44,2.12-2.27,.44-5.06,.66-8.36,.66h-27.76v11.89c0,.87-.54,1.31-1.63,1.31h-7.25c-1.14,0-1.7-.44-1.7-1.31v-32.55c0-2.15,.3-3.99,.89-5.52,.59-1.53,1.57-2.79,2.92-3.76,1.36-.98,3.16-1.69,5.4-2.15,2.25-.46,5.04-.69,8.4-.69h20.73Zm-27.76,25.62h26.72c1.63,0,2.96-.1,4-.3,1.04-.2,1.86-.56,2.48-1.08,.62-.52,1.05-1.19,1.3-2.03,.25-.84,.37-1.89,.37-3.17v-5.32c0-1.23-.12-2.28-.37-3.14-.25-.86-.68-1.53-1.3-2.03-.62-.5-1.44-.86-2.48-1.08-1.04-.22-2.37-.33-4-.33h-18.65c-1.58,0-2.89,.11-3.92,.33-1.04,.22-1.86,.58-2.48,1.08-.62,.5-1.05,1.17-1.3,2.03-.25,.86-.37,1.9-.37,3.14v11.89Z"/>
    <path class="cls-2" d="M838.26,299.04c.89,0,1.33,.36,1.33,1.08v4.78c0,.72-.44,1.08-1.33,1.08h-33.38c-1.53,0-2.59,.23-3.18,.69-.59,.46-.89,1.13-.89,2v.9c0,.8,.3,1.42,.89,1.88,.59,.46,1.65,.69,3.18,.69h24.94c4.14,0,7.11,.7,8.88,2.09,1.78,1.39,2.66,3.37,2.66,5.91v3.34c0,1.31-.2,2.49-.59,3.52-.4,1.04-1.05,1.91-1.96,2.63-.91,.72-2.11,1.26-3.59,1.64-1.48,.38-3.31,.57-5.48,.57h-37.9c-.89,0-1.33-.36-1.33-1.08v-4.78c0-.72,.44-1.08,1.33-1.08h35.08c1.53,0,2.6-.22,3.22-.66,.62-.44,.92-1.17,.92-2.21v-1.61c0-.8-.31-1.41-.92-1.85-.62-.44-1.69-.66-3.22-.66h-24.87c-4.15,0-7.11-.69-8.88-2.06-1.78-1.37-2.66-3.37-2.66-6v-2.63c0-1.23,.2-2.36,.59-3.37,.39-1.02,1.05-1.88,1.96-2.6s2.11-1.26,3.59-1.64c1.48-.38,3.31-.57,5.48-.57h36.12Z"/>
    <text class="cls-3" transform="translate(71.57 413.62) scale(.9 1)"><tspan class="cls-5" x="0" y="0">This is the era of vinly </tspan><tspan class="cls-6" x="718.47" y="0">w</tspan><tspan class="cls-4" x="769.71" y="0">rapping</tspan></text>
    <g>
      <path class="cls-2" d="M2,140.11l15.54,43.33h498.61l-330.74-43.33-53.44-30.33S253.55,7.24,545.89,7.24c0,0-278.15-53.44-464.46,129.98"/>
      <path class="cls-2" d="M830.08,191.79c-1.14,.07-186.18-206.7-386.25-143.73,0,0,252.48,6.22,385.11,143.8"/>
    </g>
  </g>
</svg>