<svg xmlns="http://www.w3.org/2000/svg" xmlns:xlink="http://www.w3.org/1999/xlink" width="260" height="80" viewBox="0 0 260 80">
  <defs>
    <clipPath id="clip-path">
      <rect id="Logo" width="260" height="80" transform="translate(140 10)" fill="#f4eded"/>
    </clipPath>
  </defs>
  <g id="Mask_Group_1" data-name="Mask Group 1" transform="translate(-140 -10)" clip-path="url(#clip-path)">
    <g id="Layer_2" data-name="Layer 2" transform="translate(162.575 10.001)">
      <g id="Layer_1-2" data-name="Layer 1-2">
        <g id="Group_2" data-name="Group 2">
          <path id="Path_1" data-name="Path 1" d="M59.1,56.709a4.148,4.148,0,0,0-1.913-1.149,10.37,10.37,0,0,0-2.92-.353H41.322c-.342,0-.513.207-.513.618V73.277q0,.574.513.574H54.263a10.287,10.287,0,0,0,2.92-.353A4.117,4.117,0,0,0,59.1,72.349a4.708,4.708,0,0,0,1.046-2.12,14.425,14.425,0,0,0,.315-3.269V62.1a14.411,14.411,0,0,0-.315-3.269,4.639,4.639,0,0,0-1.046-2.12h0Z" fill="none"/>
          <path id="Path_2" data-name="Path 2" d="M31.722,49.065H.907c-.606,0-.907.324-.907.971v4.331q0,1.016.907,1.017H13.3V79.023q0,.971.869.971h4.3q.869,0,.869-.971V55.384H31.725c.6,0,.907-.337.907-1.017V50.037q0-.971-.907-.971h0Z" fill="#f4eded"/>
          <path id="Path_3" data-name="Path 3" d="M63.652,52.047A8.773,8.773,0,0,0,59.9,49.793a18.192,18.192,0,0,0-5.485-.729H35.956q-1.183,0-1.183,1.327V78.668c0,.884.394,1.324,1.183,1.324H54.42a18.2,18.2,0,0,0,5.485-.729,8.751,8.751,0,0,0,3.748-2.254,9.259,9.259,0,0,0,2.15-3.889,20.052,20.052,0,0,0,.691-5.59V61.521a20.052,20.052,0,0,0-.691-5.59,9.3,9.3,0,0,0-2.15-3.889Zm-3.2,14.913a14.4,14.4,0,0,1-.315,3.269,4.639,4.639,0,0,1-1.046,2.12A4.129,4.129,0,0,1,57.183,73.5a10.287,10.287,0,0,1-2.92.353H41.322q-.513,0-.513-.574V55.824c0-.413.171-.618.513-.618H54.263a10.37,10.37,0,0,1,2.92.353A4.136,4.136,0,0,1,59.1,56.709a4.708,4.708,0,0,1,1.046,2.12,14.425,14.425,0,0,1,.315,3.269v4.86h0Z" fill="#f4eded"/>
          <path id="Path_4" data-name="Path 4" d="M116.315,49.375a.344.344,0,0,0-.374-.31h-5.327a.7.7,0,0,0-.374.109.686.686,0,0,0-.255.465L103.75,73.411c-.052.207-.157.31-.315.31H103.2c-.157,0-.264-.1-.315-.31L96.335,51.628a4.113,4.113,0,0,0-1.124-1.988,3.04,3.04,0,0,0-1.992-.574h-3.9a2.887,2.887,0,0,0-1.776.531,3.79,3.79,0,0,0-1.144,2.033L80,73.413c-.052.207-.157.31-.315.31h-.2c-.185,0-.29-.1-.315-.31L72.782,49.642c-.1-.383-.29-.574-.552-.574H66.944a.337.337,0,0,0-.374.287,1.625,1.625,0,0,0,.059.729l7.26,26.555a11.763,11.763,0,0,0,.572,1.68,3.237,3.237,0,0,0,.691,1.039,2.042,2.042,0,0,0,.887.508A4.49,4.49,0,0,0,77.2,80h4.5a2.32,2.32,0,0,0,1.8-.707,7.235,7.235,0,0,0,1.242-2.651l6.273-20.988c.025-.205.132-.31.315-.31h.157c.185,0,.289.1.315.31l6.194,20.988a7.234,7.234,0,0,0,1.242,2.651,2.317,2.317,0,0,0,1.8.707h4.616a2.423,2.423,0,0,0,1.815-.684,6.5,6.5,0,0,0,1.224-2.674l7.575-26.555a1.5,1.5,0,0,0,.059-.707l-.007,0Z" fill="#f4eded"/>
        </g>
        <path id="Path_5" data-name="Path 5" d="M134.007,49.772c.258,0,.388.1.388.3V51.4c0,.21-.13.312-.388.312h-5.3V59c0,.2-.123.3-.372.3H126.5c-.248,0-.372-.1-.372-.3V51.717h-5.3c-.26,0-.388-.1-.388-.312V50.071c0-.2.13-.3.388-.3h13.178Z" fill="#f4eded"/>
        <path id="Path_6" data-name="Path 6" d="M144.2,51.828c.2,0,.3.082.3.246v1.144c0,.164-.1.246-.3.246H139.71a4.4,4.4,0,0,0-.894.075,1.321,1.321,0,0,0-.565.246.894.894,0,0,0-.3.463,2.59,2.59,0,0,0-.084.716v4.044c0,.2-.123.3-.372.3h-1.653c-.26,0-.388-.1-.388-.3V54.6a3.5,3.5,0,0,1,.2-1.258,1.865,1.865,0,0,1,.666-.857,3.189,3.189,0,0,1,1.231-.49,9.761,9.761,0,0,1,1.915-.157H144.2v-.007Z" fill="#f4eded"/>
        <path id="Path_7" data-name="Path 7" d="M147.894,49.065c.246,0,.372.1.372.3v1.293c0,.21-.123.312-.372.312h-1.653c-.26,0-.388-.1-.388-.312V49.364c0-.2.13-.3.388-.3Zm0,2.763c.246,0,.372.1.372.312V59c0,.2-.123.3-.372.3h-1.653c-.248,0-.372-.1-.372-.3V52.141c0-.21.123-.312.372-.312h1.653Z" fill="#f4eded"/>
        <path id="Path_8" data-name="Path 8" d="M159.1,51.828a9.774,9.774,0,0,1,1.906.157,3.191,3.191,0,0,1,1.24.49,1.862,1.862,0,0,1,.666.857,3.5,3.5,0,0,1,.2,1.258v1.96a3.5,3.5,0,0,1-.2,1.258,1.865,1.865,0,0,1-.666.857,3.122,3.122,0,0,1-1.24.483,10.224,10.224,0,0,1-1.906.15h-6.328v2.71c0,.2-.123.3-.372.3h-1.653c-.26,0-.388-.1-.388-.3v-7.42a3.5,3.5,0,0,1,.2-1.258,1.865,1.865,0,0,1,.666-.857,3.189,3.189,0,0,1,1.231-.49,9.761,9.761,0,0,1,1.915-.157H159.1Zm-6.328,5.84h6.091a4.973,4.973,0,0,0,.912-.068,1.22,1.22,0,0,0,.565-.246.932.932,0,0,0,.3-.463,2.575,2.575,0,0,0,.084-.723V54.956a2.6,2.6,0,0,0-.084-.716.894.894,0,0,0-.3-.463,1.321,1.321,0,0,0-.565-.246,4.531,4.531,0,0,0-.912-.075h-4.251a4.4,4.4,0,0,0-.894.075,1.321,1.321,0,0,0-.565.246.894.894,0,0,0-.3.463,2.59,2.59,0,0,0-.084.716v2.71h0Z" fill="#f4eded"/>
        <path id="Path_9" data-name="Path 9" d="M167.145,49.093c.246,0,.372.1.372.3V59c0,.2-.123.3-.372.3h-1.653c-.248,0-.372-.1-.372-.3V49.391c0-.2.123-.3.372-.3Z" fill="#f4eded"/>
        <path id="Path_10" data-name="Path 10" d="M178.246,51.828a7.28,7.28,0,0,1,1.427.116,2.086,2.086,0,0,1,.894.381,1.428,1.428,0,0,1,.465.7,3.536,3.536,0,0,1,.135,1.042v1.293a.7.7,0,0,1-.237.606,1.241,1.241,0,0,1-.725.171h-8.521v.326a1.083,1.083,0,0,0,.381.926,2.638,2.638,0,0,0,1.477.285h7.037c.2,0,.3.082.3.246v1.144c0,.164-.1.246-.3.246h-7.272a10.176,10.176,0,0,1-1.915-.15,3.09,3.09,0,0,1-1.231-.483,1.862,1.862,0,0,1-.666-.857,3.5,3.5,0,0,1-.2-1.258V54.6a3.5,3.5,0,0,1,.2-1.258,1.865,1.865,0,0,1,.666-.857,3.189,3.189,0,0,1,1.231-.49,9.745,9.745,0,0,1,1.915-.157h4.944l0,0Zm-6.563,3.091h6.834q.287,0,.287-.233v-.572a.732.732,0,0,0-.219-.6,1.34,1.34,0,0,0-.809-.178h-4.235a2.712,2.712,0,0,0-1.477.278,1.082,1.082,0,0,0-.381.932Z" fill="#f4eded"/>
        <path id="Path_11" data-name="Path 11" d="M197.078,49.772a10.568,10.568,0,0,1,2.346.226,4.2,4.2,0,0,1,1.6.7,2.76,2.76,0,0,1,.919,1.2,4.589,4.589,0,0,1,.3,1.723v1.851a4.544,4.544,0,0,1-.3,1.723,2.791,2.791,0,0,1-.919,1.2,4.232,4.232,0,0,1-1.6.7,10.568,10.568,0,0,1-2.346.226h-7.9c-.337,0-.506-.137-.506-.408V50.187c0-.271.169-.408.506-.408h7.9v-.007Zm-5.822,7.461q0,.178.219.178h5.535a6.035,6.035,0,0,0,1.249-.109,2,2,0,0,0,.818-.353,1.33,1.33,0,0,0,.447-.654,3.276,3.276,0,0,0,.135-1.008v-1.5a3.276,3.276,0,0,0-.135-1.008,1.366,1.366,0,0,0-.447-.654,1.975,1.975,0,0,0-.818-.353,6.034,6.034,0,0,0-1.249-.109h-5.535q-.219,0-.219.191Z" fill="#f4eded"/>
        <path id="Path_12" data-name="Path 12" d="M205.986,49.093c.246,0,.372.1.372.3v1.158a2.644,2.644,0,0,1-.016.3,1.7,1.7,0,0,1-.1.34l-.625,1.851a.472.472,0,0,1-.16.237.547.547,0,0,1-.3.062h-.675c-.269,0-.376-.1-.321-.3l.456-2.029h-.287c-.26,0-.388-.1-.388-.3v-1.32c0-.2.13-.3.388-.3h1.653Z" fill="#f4eded"/>
        <path id="Path_13" data-name="Path 13" d="M214.412,51.828c.125,0,.189.05.189.153v.677c0,.1-.064.153-.189.153h-4.723a.759.759,0,0,0-.451.1.333.333,0,0,0-.125.283v.128a.32.32,0,0,0,.125.267.777.777,0,0,0,.451.1h3.529a2.055,2.055,0,0,1,1.256.3,1,1,0,0,1,.376.837v.474a1.365,1.365,0,0,1-.084.5.854.854,0,0,1-.278.372,1.4,1.4,0,0,1-.508.233,3.127,3.127,0,0,1-.775.08h-5.362c-.125,0-.189-.05-.189-.153v-.677c0-.1.064-.153.189-.153h4.965a.824.824,0,0,0,.456-.093.357.357,0,0,0,.13-.312v-.228a.3.3,0,0,0-.13-.262.824.824,0,0,0-.456-.093h-3.52a2.091,2.091,0,0,1-1.256-.292,1.008,1.008,0,0,1-.376-.85v-.372a1.275,1.275,0,0,1,.084-.476.837.837,0,0,1,.278-.367,1.4,1.4,0,0,1,.508-.233,3.24,3.24,0,0,1,.775-.08h5.111Z" fill="#f4eded"/>
        <path id="Path_14" data-name="Path 14" d="M122.819,66.112a.242.242,0,0,1,.237.178l2.733,7.324c.011.064.057.1.134.1h.084a.131.131,0,0,0,.134-.1l2.733-6.713a1.165,1.165,0,0,1,.49-.627,1.585,1.585,0,0,1,.759-.164H131.8a1.673,1.673,0,0,1,.853.178,1.254,1.254,0,0,1,.481.613l2.8,6.713a.132.132,0,0,0,.135.1h.1a.131.131,0,0,0,.135-.1l2.665-7.324a.216.216,0,0,1,.109-.144.386.386,0,0,1,.16-.034h2.277c.089,0,.144.032.16.1a.346.346,0,0,1-.025.219l-3.239,8.184a1.836,1.836,0,0,1-.522.823,1.276,1.276,0,0,1-.775.212h-1.974a1.217,1.217,0,0,1-.768-.219,2.066,2.066,0,0,1-.531-.816l-2.649-6.467c-.011-.064-.057-.1-.135-.1h-.068c-.08,0-.123.032-.135.1l-2.683,6.467a2.048,2.048,0,0,1-.531.816,1.212,1.212,0,0,1-.768.219h-1.924a2.616,2.616,0,0,1-.5-.041,1.006,1.006,0,0,1-.381-.157,1.084,1.084,0,0,1-.3-.319,2.913,2.913,0,0,1-.244-.517l-3.1-8.184a.358.358,0,0,1-.025-.226c.016-.059.071-.089.16-.089h2.264Z" fill="#f4eded"/>
        <path id="Path_15" data-name="Path 15" d="M150.746,68.168c.2,0,.3.082.3.246v1.144c0,.164-.1.246-.3.246h-4.488a4.4,4.4,0,0,0-.894.075,1.321,1.321,0,0,0-.565.246.894.894,0,0,0-.3.463,2.59,2.59,0,0,0-.084.716v4.044c0,.2-.123.3-.372.3h-1.653c-.26,0-.388-.1-.388-.3V70.938a3.5,3.5,0,0,1,.2-1.258,1.865,1.865,0,0,1,.666-.857,3.189,3.189,0,0,1,1.231-.49,9.761,9.761,0,0,1,1.915-.157h4.726v-.007Z" fill="#f4eded"/>
        <path id="Path_16" data-name="Path 16" d="M159.889,68.168a9.775,9.775,0,0,1,1.906.157,3.191,3.191,0,0,1,1.24.49,1.862,1.862,0,0,1,.666.857,3.5,3.5,0,0,1,.2,1.258v3.622a2.065,2.065,0,0,1-.059.538.641.641,0,0,1-.2.333.841.841,0,0,1-.381.171,3.148,3.148,0,0,1-.606.048h-8.031a5.559,5.559,0,0,1-1.24-.116,2.122,2.122,0,0,1-.8-.346,1.244,1.244,0,0,1-.431-.6,2.687,2.687,0,0,1-.128-.871v-.654a2.112,2.112,0,0,1,.128-.755,1.266,1.266,0,0,1,.431-.565,2.087,2.087,0,0,1,.8-.346,5.559,5.559,0,0,1,1.24-.116h6.868v-.258a1.618,1.618,0,0,0-.084-.558.778.778,0,0,0-.287-.374,1.433,1.433,0,0,0-.556-.212,4.972,4.972,0,0,0-.912-.068H152.6c-.2,0-.3-.082-.3-.246V68.412c0-.164.1-.246.3-.246h7.29ZM161,74.147a.56.56,0,0,0,.381-.1.483.483,0,0,0,.109-.36v-1.2h-6.175a1.192,1.192,0,0,0-.734.171.6.6,0,0,0-.212.5v.285a.648.648,0,0,0,.212.538,1.192,1.192,0,0,0,.734.171H161Z" fill="#f4eded"/>
        <path id="Path_17" data-name="Path 17" d="M174.4,68.168a9.775,9.775,0,0,1,1.906.157,3.191,3.191,0,0,1,1.24.49,1.862,1.862,0,0,1,.666.857,3.5,3.5,0,0,1,.2,1.258v1.96a3.5,3.5,0,0,1-.2,1.258,1.865,1.865,0,0,1-.666.857,3.122,3.122,0,0,1-1.24.483,10.224,10.224,0,0,1-1.906.15h-6.328v2.71c0,.2-.123.3-.372.3h-1.653c-.26,0-.388-.1-.388-.3v-7.42a3.5,3.5,0,0,1,.2-1.258,1.865,1.865,0,0,1,.666-.857,3.189,3.189,0,0,1,1.231-.49,9.761,9.761,0,0,1,1.915-.157H174.4Zm-6.328,5.84h6.091a4.973,4.973,0,0,0,.912-.068,1.22,1.22,0,0,0,.565-.246.932.932,0,0,0,.3-.463,2.575,2.575,0,0,0,.084-.723V71.3a2.6,2.6,0,0,0-.084-.716.894.894,0,0,0-.3-.463,1.321,1.321,0,0,0-.565-.246,4.531,4.531,0,0,0-.912-.075h-4.251a4.4,4.4,0,0,0-.894.075,1.321,1.321,0,0,0-.565.246.894.894,0,0,0-.3.463,2.589,2.589,0,0,0-.084.716v2.71h0Z" fill="#f4eded"/>
        <path id="Path_18" data-name="Path 18" d="M191.087,68.168c.2,0,.3.082.3.246V69.5c0,.164-.1.246-.3.246h-7.609a1.225,1.225,0,0,0-.725.157.545.545,0,0,0-.2.456v.205a.513.513,0,0,0,.2.429,1.225,1.225,0,0,0,.725.157h5.685a3.332,3.332,0,0,1,2.024.476,1.611,1.611,0,0,1,.606,1.347v.761a2.26,2.26,0,0,1-.135.8,1.388,1.388,0,0,1-.447.6,2.18,2.18,0,0,1-.818.374,5.113,5.113,0,0,1-1.249.13h-8.64c-.2,0-.3-.082-.3-.246v-1.09c0-.164.1-.246.3-.246h8a1.321,1.321,0,0,0,.734-.15.572.572,0,0,0,.21-.5v-.367a.489.489,0,0,0-.21-.422,1.321,1.321,0,0,0-.734-.15h-5.669a3.365,3.365,0,0,1-2.024-.47,1.619,1.619,0,0,1-.606-1.368v-.6a2.123,2.123,0,0,1,.134-.768,1.377,1.377,0,0,1,.447-.593,2.18,2.18,0,0,1,.818-.374,5.113,5.113,0,0,1,1.249-.13Z" fill="#f4eded"/>
        <g id="Group_3" data-name="Group 3">
          <path id="Path_19" data-name="Path 19" d="M.456,31.939,4,41.816H117.66L42.265,31.939,30.083,25.025S57.8,1.65,124.439,1.65c0,0-63.406-12.182-105.877,29.63" fill="#f4eded"/>
          <path id="Path_20" data-name="Path 20" d="M189.222,43.72c-.26.016-42.441-47.119-88.048-32.764,0,0,57.555,1.418,87.788,32.78" fill="#f4eded"/>
        </g>
      </g>
    </g>
  </g>
</svg>
